<svg id="Layer_1" data-name="Layer 1" xmlns="http://www.w3.org/2000/svg" viewBox="0 0 123 30"><defs><style>.cls-1{fill:#ff4d00;}.cls-2{fill:#ff7d00;}.cls-3{fill:#001aff;}.cls-4{fill:#e23400;}.cls-5{fill:#fff;}</style></defs><title>logo</title><polygon class="cls-1" points="13.48 17.45 22.5 22.5 22.84 18.66 20.33 15.99 16.63 15.38 13.48 17.45"/><polygon class="cls-2" points="15 0 22.5 22.5 30 15 15 0"/><polygon class="cls-3" points="13.79 11.92 13.48 17.45 25 15 13.79 11.92"/><polygon class="cls-4" points="0 15 0 15 8.01 23.01 9.5 21.01 9.23 18.61 5.56 16.23 0 15"/><polygon class="cls-1" points="14.19 0.81 0 15 9.23 18.61 14.19 0.81"/><polygon class="cls-2" points="9.23 18.61 8.01 23.01 15 30 21.57 23.43 9.23 18.61"/><polygon class="cls-5" points="40.45 19.28 39.04 19.28 39.04 7.93 40.45 7.11 40.45 19.28"/><polygon class="cls-5" points="103.23 9.17 101.79 9.17 101.79 8.05 101.79 7.66 103.23 7.66 103.23 9.17"/><path class="cls-5" d="M73.92,39a3.05,3.05,0,0,0-2.66,1.42V39.15H69.89v8.57h1.37V42.83a2.33,2.33,0,0,1,2.32-2.54c1.33,0,2.13.91,2.13,2.44v5h1.37v-5.3a3.67,3.67,0,0,0-.83-2.49A3,3,0,0,0,73.92,39Z" transform="translate(-27.21 -28.45)"/><path class="cls-5" d="M88,39A4.15,4.15,0,0,0,85,40.31a4.58,4.58,0,0,0-1.21,3.14v0A4.3,4.3,0,0,0,88,47.92a4.17,4.17,0,0,0,3.07-1.33,4.57,4.57,0,0,0,1.22-3.14v0A4.31,4.31,0,0,0,88,39Zm2.86,4.47v0A2.94,2.94,0,0,1,88,46.62a3,3,0,0,1-2.87-3.18v0A3,3,0,0,1,88,40.26,3,3,0,0,1,90.88,43.45Z" transform="translate(-27.21 -28.45)"/><path class="cls-5" d="M95.33,41V39.15H94v8.57h1.37V44.29c0-2.28,1.21-3.82,3.09-3.82h.18V39h-.08A3.42,3.42,0,0,0,95.33,41Z" transform="translate(-27.21 -28.45)"/><path class="cls-5" d="M109.2,39a3.2,3.2,0,0,0-2.81,1.58A2.79,2.79,0,0,0,103.8,39a2.91,2.91,0,0,0-2.5,1.39V39.15H99.93v8.57h1.37V42.85a2.3,2.3,0,0,1,2.15-2.56c1.24,0,2,.9,2,2.41v5h1.37V42.8a2.72,2.72,0,0,1,.62-1.86,2,2,0,0,1,1.49-.65c1.27,0,2,.89,2,2.44v5h1.37V42.44C112.27,40.3,111.09,39,109.2,39Z" transform="translate(-27.21 -28.45)"/><path class="cls-5" d="M127.33,40.44V39.15h-2.58v-3l-1.37.8v2.18h-1.49v1.28h1.49v5a2.17,2.17,0,0,0,2.35,2.46,3,3,0,0,0,1.49-.37l0,0V46.21l-.13.06a2.33,2.33,0,0,1-1.12.28c-.85,0-1.26-.43-1.26-1.31V40.44Z" transform="translate(-27.21 -28.45)"/><path class="cls-5" d="M138.72,45.4a3.14,3.14,0,0,1-2.39,1.22,3,3,0,0,1-2.86-3.18v0a3,3,0,0,1,2.78-3.16,3.11,3.11,0,0,1,2.37,1.24l.07.07.91-1-.05-.06A4.14,4.14,0,0,0,136.28,39a4,4,0,0,0-3,1.33,4.62,4.62,0,0,0-1.2,3.14v0a4.57,4.57,0,0,0,1.2,3.12,4.05,4.05,0,0,0,3,1.32,4.18,4.18,0,0,0,3.34-1.65l.05-.06-.89-.87Z" transform="translate(-27.21 -28.45)"/><path class="cls-5" d="M117.48,39a6.52,6.52,0,0,0-3,.71l-.07,0,.42,1.19.09,0a5.3,5.3,0,0,1,2.4-.61c1.47,0,2.32.68,2.32,2.24h-2.39c-2.24,0-3.52,1-3.52,2.67v0a2.83,2.83,0,0,0,3.08,2.7,3.57,3.57,0,0,0,2.83-1.28v1.1H121V42.51a3.68,3.68,0,0,0-.85-2.58A3.52,3.52,0,0,0,117.48,39Zm2.19,4.62v1a2.36,2.36,0,0,1-2.6,2.18c-1.32,0-1.93-.82-1.93-1.58v0c0-.69.39-1.52,2.25-1.52Z" transform="translate(-27.21 -28.45)"/><path class="cls-5" d="M81,38.36c0-1.23.32-1.7,1.29-1.7a3.71,3.71,0,0,1,1.14.21l.08,0V35.62h0a3.59,3.59,0,0,0-1.35-.22,2.39,2.39,0,0,0-1.79.68,3.15,3.15,0,0,0-.72,2.22v.86H78.09v1.28h1.49v7.29H81V40.44h2.58V39.15H81Z" transform="translate(-27.21 -28.45)"/><polygon class="cls-5" points="103.2 19.28 101.83 19.28 101.83 11.62 101.83 10.71 103.2 10.71 103.2 19.28"/><path class="cls-5" d="M144.23,39a6.53,6.53,0,0,0-3,.71l-.07,0,.42,1.19.09,0a5.3,5.3,0,0,1,2.4-.61c1.47,0,2.32.68,2.32,2.24H144c-2.24,0-3.52,1-3.52,2.67v0a2.83,2.83,0,0,0,3.08,2.7,3.57,3.57,0,0,0,2.83-1.28v1.1h1.31V42.51a3.68,3.68,0,0,0-.85-2.58A3.52,3.52,0,0,0,144.23,39Zm2.19,4.62v1a2.36,2.36,0,0,1-2.6,2.18c-1.33,0-1.93-.82-1.93-1.58v0c0-.7.39-1.52,2.25-1.52Z" transform="translate(-27.21 -28.45)"/><path class="cls-5" d="M148.56,39.32h-.31v-.16H149v.16h-.31v.83h-.18Z" transform="translate(-27.21 -28.45)"/><path class="cls-5" d="M149.23,39.15h.19l.3.47.3-.47h.19v1H150v-.71l-.31.47h0l-.31-.47v.71h-.17Z" transform="translate(-27.21 -28.45)"/></svg>